<svg version="1.1" id="Layer_1" xmlns="http://www.w3.org/2000/svg" xmlns:xlink="http://www.w3.org/1999/xlink" x="0px" y="0px"
	 width="100%" viewBox="0 0 52 70" enable-background="new 0 0 52 70" xml:space="preserve">
<path fill="#FAFAFA" opacity="1.000000" stroke="none" 
	d="
M24.000084,71.000000 
	C16.015505,71.000000 8.530902,71.000000 1.023150,71.000000 
	C1.023150,47.730022 1.023150,24.460018 1.023150,1.095006 
	C18.233946,1.095006 35.468590,1.095006 52.851616,1.095006 
	C52.851616,24.332594 52.851616,47.666199 52.851616,71.000000 
	C43.461025,71.000000 33.980541,71.000000 24.000084,71.000000 
M38.926491,59.941372 
	C39.410572,63.387119 39.894653,66.832870 40.528446,71.344315 
	C47.239002,62.486729 43.202503,55.574680 29.040768,48.837128 
	C29.040768,45.079182 29.040768,41.279140 29.040768,37.507900 
	C48.326721,33.391991 55.404667,24.947596 47.744446,14.600850 
	C46.548553,19.565344 46.614182,25.136841 43.983776,28.740355 
	C40.659779,33.294060 34.526497,33.426716 28.308506,32.438198 
	C29.379507,27.392717 25.989141,21.989941 31.818859,17.788284 
	C36.455467,14.446539 36.579876,8.676764 32.971607,5.270704 
	C29.024441,1.544743 22.414944,2.058112 18.816883,6.370121 
	C16.083591,9.645767 17.445021,15.411936 21.521732,18.646427 
	C22.659349,19.549023 24.026306,20.921904 24.154108,22.193052 
	C24.512480,25.757538 24.279007,29.381527 24.279007,34.437016 
	C20.108793,32.205376 15.977979,31.271898 14.115579,28.697428 
	C11.354999,24.881361 10.202533,19.901972 8.375154,15.441395 
	C5.775508,16.684189 5.587988,17.072142 6.280643,21.014536 
	C8.060245,31.143524 12.660401,35.252113 24.289953,36.635120 
	C24.289953,39.332928 24.042183,42.140289 24.353472,44.884232 
	C24.731716,48.218361 23.476810,49.697781 20.352491,50.955383 
	C12.877327,53.964287 10.721302,58.457382 12.779737,65.801170 
	C13.130560,67.052773 14.620965,67.984947 15.584904,69.064697 
	C15.828135,67.765602 16.404963,66.425354 16.250763,65.175285 
	C15.823388,61.710629 15.682086,58.381924 19.233530,56.440872 
	C24.980654,53.299767 33.957928,54.666153 38.926491,59.941372 
z"/>
<path fill="#141414" opacity="1.000000" stroke="none" 
	d="
M38.769577,59.580235 
	C33.957928,54.666153 24.980654,53.299767 19.233530,56.440872 
	C15.682086,58.381924 15.823388,61.710629 16.250763,65.175285 
	C16.404963,66.425354 15.828135,67.765602 15.584904,69.064697 
	C14.620965,67.984947 13.130560,67.052773 12.779737,65.801170 
	C10.721302,58.457382 12.877327,53.964287 20.352491,50.955383 
	C23.476810,49.697781 24.731716,48.218361 24.353472,44.884232 
	C24.042183,42.140289 24.289953,39.332928 24.289953,36.635120 
	C12.660401,35.252113 8.060245,31.143524 6.280643,21.014536 
	C5.587988,17.072142 5.775508,16.684189 8.375154,15.441395 
	C10.202533,19.901972 11.354999,24.881361 14.115579,28.697428 
	C15.977979,31.271898 20.108793,32.205376 24.279007,34.437016 
	C24.279007,29.381527 24.512480,25.757538 24.154108,22.193052 
	C24.026306,20.921904 22.659349,19.549023 21.521732,18.646427 
	C17.445021,15.411936 16.083591,9.645767 18.816883,6.370121 
	C22.414944,2.058112 29.024441,1.544743 32.971607,5.270704 
	C36.579876,8.676764 36.455467,14.446539 31.818859,17.788284 
	C25.989141,21.989941 29.379507,27.392717 28.308506,32.438198 
	C34.526497,33.426716 40.659779,33.294060 43.983776,28.740355 
	C46.614182,25.136841 46.548553,19.565344 47.744446,14.600850 
	C55.404667,24.947596 48.326721,33.391991 29.040768,37.507900 
	C29.040768,41.279140 29.040768,45.079182 29.040768,48.837128 
	C43.202503,55.574680 47.239002,62.486729 40.528446,71.344315 
	C39.894653,66.832870 39.410572,63.387119 38.769577,59.580235 
M31.962700,9.812338 
	C30.266260,5.518865 27.001514,5.155981 23.545013,7.054196 
	C22.245346,7.767938 20.679705,10.708963 21.127556,11.389688 
	C22.525139,13.514001 24.728933,16.334642 26.801811,16.491951 
	C29.697611,16.711710 32.248417,14.344702 31.962700,9.812338 
z"/>
<path fill="#F4F4F4" opacity="1.000000" stroke="none" 
	d="
M31.971806,10.205124 
	C32.248417,14.344702 29.697611,16.711710 26.801811,16.491951 
	C24.728933,16.334642 22.525139,13.514001 21.127556,11.389688 
	C20.679705,10.708963 22.245346,7.767938 23.545013,7.054196 
	C27.001514,5.155981 30.266260,5.518865 31.971806,10.205124 
z"/>
</svg>